<svg xmlns="http://www.w3.org/2000/svg" xmlns:xlink="http://www.w3.org/1999/xlink" width="159.565" height="152" viewBox="0 0 159.565 152">
  <defs>
    <clipPath id="clip-path">
      <rect id="Rectángulo_103" data-name="Rectángulo 103" width="159.565" height="152" fill="none"/>
    </clipPath>
  </defs>
  <g id="Grupo_132" data-name="Grupo 132" clip-path="url(#clip-path)">
    <path id="Trazado_296" data-name="Trazado 296" d="M79.569,4.314c-1.592,0-3.171.134-4.755.257-.792.061-1.583.128-2.375.182a2.349,2.349,0,0,1-1.177-.04.884.884,0,0,1-.619-.938c0-.107,0-.215,0-.322a3.111,3.111,0,0,0-2.109-2.9,13.37,13.37,0,0,0-3.775.513A45.779,45.779,0,0,0,57.38,3.131l-.291.127a1.021,1.021,0,0,1-1.417-1.187c.029-.128.058-.254.1-.379A1.178,1.178,0,0,0,54.525.115a1.347,1.347,0,0,0-.452.141C53.49.517,52.921.8,52.354,1.1c-1.417.74-2.8,1.533-4.168,2.357a46.771,46.771,0,0,0-7.823,5.505l-.232.212A.987.987,0,0,1,38.423,8.7q-.1-1.042-.206-2.084a1.11,1.11,0,0,0-1.955-.572L30.232,12.8a31.058,31.058,0,0,0-4.205,5.737c-.1.2-.217.391-.328.585a1.014,1.014,0,0,1-1.63.112l-.217-.27a2.5,2.5,0,0,0-4.414.834c-.642,1.74-1.275,3.484-1.889,5.235a40.717,40.717,0,0,0-2.657,9.687,1.019,1.019,0,0,1-1.509.785,3.492,3.492,0,0,0-3.606.26,3.666,3.666,0,0,0-1.438,3.375c-.094,1.833-.214,3.666-.342,5.5a30.921,30.921,0,0,0,.2,7.349,1.02,1.02,0,0,1-1.323,1.136,3.424,3.424,0,0,0-4.212,4.655,33.07,33.07,0,0,1,.766,3.775,34.445,34.445,0,0,0,2.227,7.819,1.02,1.02,0,0,1-1.425,1.3l-.219-.12c-2.624-1.436-4.992.9-3.6,3.544.948,1.8,2.488,5,3.482,6.772C5.317,83.41,7.2,86.626,8.221,88.1A17,17,0,0,0,9.31,89.445a1.02,1.02,0,0,1-.5,1.668,3.579,3.579,0,0,0-2.114,1.457,4.6,4.6,0,0,0,.423,4.381,44.6,44.6,0,0,0,5.643,6.41q2.495,2.1,4.885,3.816a1.02,1.02,0,0,1-.084,1.711c-.044.025-.087.051-.13.079a2.721,2.721,0,0,0-1.55,2.735c-.077,1.884,1.034,2.6,2.316,3.536,1.2.874,2.46,1.651,3.708,2.448a39.2,39.2,0,0,0,7.8,4.185,1.02,1.02,0,0,1,.131,1.856,2.771,2.771,0,0,0,.663,5.164l4.264,1.091c1.177.3,1.9.707,1.9,2.073v17.889a2.04,2.04,0,0,0,2.04,2.04H79.883c13.768-.061,27.537.061,41.3,0a2.041,2.041,0,0,0,2.031-2.049c-.025-5.483-.048-12.587-.072-18.07a2.038,2.038,0,0,1,1.508-1.978l.386-.1,4.259-1.111a2.772,2.772,0,0,0,.64-5.167,1.019,1.019,0,0,1,.122-1.856,35.656,35.656,0,0,0,7.783-4.219l6.092-3.927c1.173-.755,1.531-2.916-.6-4.183l-1.058-.63c-.043-.027-.087-.054-.131-.078a1.02,1.02,0,0,1-.09-1.71A39.165,39.165,0,0,0,148.582,101c.024-.029.047-.058.07-.087.943-1.218,2.258-2.74,2.85-3.344.941-.937,2.558-2.546,1.641-4.759a3.383,3.383,0,0,0-2.318-2.007,1.021,1.021,0,0,1-.513-1.666,16.411,16.411,0,0,0,1.084-1.352c1.015-1.476,2.883-4.7,4.2-7.242l3.542-6.787c1.474-2.824-1.169-4.88-3.613-3.528l-.219.121a1.02,1.02,0,0,1-1.43-1.3,35.131,35.131,0,0,0,2.192-7.829c.3-1.854.639-3.394.749-3.778a3.546,3.546,0,0,0-.262-3.256,3.367,3.367,0,0,0-2.874-1.56,3.486,3.486,0,0,0-1.1.18,1.02,1.02,0,0,1-1.328-1.13,31.661,31.661,0,0,0,.167-7.349c-.162-2.191-.318-4.657-.365-5.5-.086-3.823-2.894-4-3.459-4a3.207,3.207,0,0,0-1.6.39,1.02,1.02,0,0,1-1.513-.779,42.944,42.944,0,0,0-2.7-9.675s-.816-2.3-1.949-5.324a2.494,2.494,0,0,0-4.38-.716l-.216.271a.859.859,0,0,1-.772.36.926.926,0,0,1-.859-.465s-.257-.447-.33-.584a39.384,39.384,0,0,0-4.23-5.718l-6.06-6.737a1.11,1.11,0,0,0-1.952.58q-.1,1.042-.2,2.085a.948.948,0,0,1-1,.813.91.91,0,0,1-.7-.326l-.233-.212C115.659,5.821,107.994,1.364,105,.073a1.188,1.188,0,0,0-1.53,1.514c.042.136.1.379.1.379a1.024,1.024,0,0,1-.981,1.286,1.006,1.006,0,0,1-.43-.094l-.292-.125a34.135,34.135,0,0,0-4.925-1.475C93.859.841,92.489.572,91.68.467a2.609,2.609,0,0,0-2.909,2.039,3.153,3.153,0,0,0-.169.907c0,.108,0,.215,0,.322a1.019,1.019,0,0,1-.9,1.016c-.508.06-5.5-.449-8.026-.437" transform="translate(0 0)" fill="#120f10"/>
    <path id="Trazado_297" data-name="Trazado 297" d="M144.015,85.671a41.849,41.849,0,1,1-41.848-41.85,41.9,41.9,0,0,1,41.848,41.85m1.622,0a43.471,43.471,0,1,0-43.471,43.471,43.521,43.521,0,0,0,43.471-43.471" transform="translate(-22.339 -16.061)" fill="#fff"/>
    <path id="Trazado_298" data-name="Trazado 298" d="M243.94,91.538c.247-.97.067-1.259.032-1.313a.339.339,0,0,0-.271-.12c-.8,0-7.373,6.437-8.644,8.148a16.961,16.961,0,0,0-1.018,1.581c.021.3.048.608.066.914.072,1.265.114,2.54.114,3.822,0,1.739-.077,3.46-.212,5.166.38-.193.825-.432,1.371-.733,3.474-2.607,5.942-6.9,7.529-13.131.4-1.553.707-3,1.031-4.333" transform="translate(-89.064 -34.294)" fill="#a2843e"/>
    <path id="Trazado_299" data-name="Trazado 299" d="M228.2,138.155l.12-.04c6.613-.789,14.557-16.638,14.22-17.333l-.094-.165h-.155c-.429,0-6.952,3.917-9.029,5.213a21.882,21.882,0,0,0-2.23,1.609c-.041.232-.079.466-.121.7a64.913,64.913,0,0,1-2.71,10.017" transform="translate(-86.854 -45.907)" fill="#a2843e"/>
    <path id="Trazado_300" data-name="Trazado 300" d="M195.631,189.379c.034,0,.068,0,.1,0a22.019,22.019,0,0,0,7.745-1.559c2.619-.993,11.448-6.152,12.04-7.016a.353.353,0,0,0,.024-.348c-.1-.208-.406-.276-1.228-.276-1.167,0-3.448.144-8.13.51-.677.053-1.319.123-1.946.2-.132.158-.256.32-.39.476a65.961,65.961,0,0,1-8.218,8.014" transform="translate(-74.457 -68.578)" fill="#a2843e"/>
    <path id="Trazado_301" data-name="Trazado 301" d="M215.118,165.736q5.507-.369,14.621-9.716.826-.94,2.315-2.748c.623-.758.088-1.285-.853-1.07a57.2,57.2,0,0,0-10.2,3.348c-.1.215-.188.436-.291.65a65.478,65.478,0,0,1-5.594,9.536" transform="translate(-81.874 -57.91)" fill="#a2843e"/>
    <path id="Trazado_302" data-name="Trazado 302" d="M236.09,61.724a.242.242,0,0,0-.46-.127l-1.853,2.668c-1.078,1.547-2.489,3.889-3.225,5.264a8.479,8.479,0,0,0-1.342,3.994c.171.521.333,1.045.491,1.571a64.641,64.641,0,0,1,1.7,7.215,9.4,9.4,0,0,0,3.353-2.976c1.851-3.144,2.318-7,1.667-13.755q-.166-1.928-.332-3.855" transform="translate(-87.238 -23.392)" fill="#a2843e"/>
    <path id="Trazado_303" data-name="Trazado 303" d="M201.268,18.589c-.232-.249-.459-.152-.45.187q.069,2.566.14,5.132c.115,3.9.247,5.093.919,6.674.481.47.957.946,1.423,1.431q1.767,1.833,3.39,3.8.62.755,1.218,1.529a.459.459,0,0,0,.05.014h.015a.534.534,0,0,0,.4-.206c.64-.719,1.1-3.748.883-5.9-.4-3.648-1.706-5.889-6.357-10.91q-.816-.878-1.634-1.755" transform="translate(-76.431 -7.022)" fill="#a2843e"/>
    <rect id="Rectángulo_100" data-name="Rectángulo 100" width="74.254" height="17.419" transform="translate(42.884 128.924)" fill="#a2843e"/>
    <path id="Trazado_304" data-name="Trazado 304" d="M95.965,6.788c-5.883,1.446-8.3,2.883-9.429,5.848A64.835,64.835,0,0,1,98.119,8.786c.263-.06.528-.112.789-.169.945-1.08,1.732-2.164,1.552-2.628-.035-.111-.218-.4-.832-.162a30.586,30.586,0,0,1-3.663.962" transform="translate(-32.936 -2.183)" fill="#a2843e"/>
    <path id="Trazado_305" data-name="Trazado 305" d="M149.572,5.887c0,.04.006.079.009.119a11.85,11.85,0,0,0,2.047,2.815c.261.061.523.116.782.18a64.8,64.8,0,0,1,11.539,4.048c-.834-2.394-3.617-4.654-7.142-5.607-.87-.244-1.98-.544-2.977-.816-.668-.179-1.28-.347-1.721-.469a11.956,11.956,0,0,0-2.163-.5.371.371,0,0,0-.284.1c-.03.043-.06.087-.09.13" transform="translate(-56.927 -2.153)" fill="#a2843e"/>
    <path id="Trazado_306" data-name="Trazado 306" d="M31.406,39.959c-3.256,8.971-3.351,11.865-.567,16.3l.532.817a65.387,65.387,0,0,1,3.9-7.282c.2-.33.417-.654.627-.98.024-.33.042-.66.042-.992a18.237,18.237,0,0,0-1.418-7.152s-1.36-3.812-1.432-4.025a.26.26,0,0,0-.491,0c-.092.254-1.2,3.317-1.2,3.317" transform="translate(-10.98 -13.879)" fill="#a2843e"/>
    <path id="Trazado_307" data-name="Trazado 307" d="M143.746,226.048H65.1V204.311h78.648Zm-79.61.959h80.571V203.35H64.136Z" transform="translate(-24.41 -77.395)" fill="#fff"/>
    <path id="Trazado_308" data-name="Trazado 308" d="M203.443,120.753l.578-8.346,8.38.58-.178,2.569-6.227-.43-.4,5.777Z" transform="translate(-77.431 -42.782)" fill="#fff"/>
    <path id="Trazado_309" data-name="Trazado 309" d="M203.556,88.39l3.462.788-2.641,2.405Zm-1.994-.481,1.3,5.057-1.24,1.146.715,2.776,6.984-6.568-.836-3.248-9.271-2.31.718,2.786Z" transform="translate(-75.822 -32.261)" fill="#fff"/>
    <path id="Trazado_310" data-name="Trazado 310" d="M196.584,63.179l-1.947-3.052L196.4,59l5.277,8.278L199.914,68.4l-1.947-3.052-5.323,3.392-1.384-2.172Z" transform="translate(-72.794 -22.457)" fill="#fff"/>
    <path id="Trazado_311" data-name="Trazado 311" d="M170.224,46.1l-2.023-1.6,5.2-6.594,3.133,2.474.017,7.788.018.014,3.781-4.79,2.024,1.6-5.207,6.594-3.132-2.473-.019-7.789L174,41.311Z" transform="translate(-64.017 -14.429)" fill="#fff"/>
    <path id="Trazado_312" data-name="Trazado 312" d="M154.7,37.773,145.843,34.8l2.669-7.965,8.713,2.92-.619,1.848-6.272-2.1-.428,1.276,5.941,1.991-.552,1.651-5.941-1.992-.427,1.277,6.413,2.149Z" transform="translate(-55.508 -10.215)" fill="#fff"/>
    <path id="Trazado_313" data-name="Trazado 313" d="M120.745,33l-2.575.049-.157-8.4L122,24.571l4.951,6.011h.024l-.115-6.1,2.575-.05.159,8.4-3.991.076-4.953-6.012h-.024Z" transform="translate(-44.916 -9.298)" fill="#fff"/>
    <rect id="Rectángulo_101" data-name="Rectángulo 101" width="2.577" height="8.401" transform="translate(62.496 18.013) rotate(-17.011)" fill="#fff"/>
    <path id="Trazado_314" data-name="Trazado 314" d="M80.19,38.372,77.1,40.253l-1.085-1.784,8.386-5.1,1.086,1.785L82.39,37.034l3.28,5.393-2.2,1.337Z" transform="translate(-28.93 -12.7)" fill="#fff"/>
    <path id="Trazado_315" data-name="Trazado 315" d="M62.547,62.077l-1.638,1.991-6.488-5.337,2.535-3.083,7.789.141.014-.018-4.714-3.877,1.637-1.99,6.487,5.337-2.535,3.083-7.787-.14-.015.018Z" transform="translate(-20.713 -18.993)" fill="#fff"/>
    <path id="Trazado_316" data-name="Trazado 316" d="M46.439,81.407q.3-.9.8-1.085a2.007,2.007,0,0,1,1.309.09l.859.288a2.163,2.163,0,0,1,1.153.7,1.468,1.468,0,0,1-.027,1.233q-.524,1.562-1.046,3.125c-.188.557-.427.891-.721,1a2.159,2.159,0,0,1-1.342-.136l-.858-.289a2.017,2.017,0,0,1-1.1-.717,1.592,1.592,0,0,1,.017-1.347q.479-1.431.959-2.86M52.71,82.92a7.906,7.906,0,0,0,.375-1.557A3.036,3.036,0,0,0,53,80.128a2.089,2.089,0,0,0-.652-.976A3.966,3.966,0,0,0,51,78.445l-2.376-.8a4.02,4.02,0,0,0-1.5-.248,2.043,2.043,0,0,0-1.109.388,3.07,3.07,0,0,0-.808.934,7.851,7.851,0,0,0-.638,1.469q-.657,1.958-1.314,3.918a8.123,8.123,0,0,0-.38,1.555,2.874,2.874,0,0,0,.084,1.228,2.111,2.111,0,0,0,.656.978,3.908,3.908,0,0,0,1.347.714l2.377.8a3.909,3.909,0,0,0,1.5.24,2.086,2.086,0,0,0,1.108-.387,3.056,3.056,0,0,0,.806-.929,7.792,7.792,0,0,0,.639-1.469q.656-1.959,1.313-3.918" transform="translate(-16.307 -29.457)" fill="#fff"/>
    <path id="Trazado_317" data-name="Trazado 317" d="M48.613,114.168a8.034,8.034,0,0,1-.089,1.6,3.022,3.022,0,0,1-.435,1.151,2.084,2.084,0,0,1-.9.748,3.906,3.906,0,0,1-1.5.3l-2.5.079a3.944,3.944,0,0,1-1.511-.2,2.12,2.12,0,0,1-.956-.69,2.921,2.921,0,0,1-.5-1.122,8.3,8.3,0,0,1-.184-1.591q-.047-1.514-.1-3.027a11.95,11.95,0,0,1,.09-2.168A2.686,2.686,0,0,1,40.5,108a1.791,1.791,0,0,1,.923-.6,6.352,6.352,0,0,1,1.548-.2l.08,2.574-.231.008a.633.633,0,0,0-.593.319,1.843,1.843,0,0,0-.146.911q.043,1.4.087,2.806a1.585,1.585,0,0,0,.453,1.269,2.016,2.016,0,0,0,1.28.29l.9-.028a2.159,2.159,0,0,0,1.306-.337,1.475,1.475,0,0,0,.329-1.189q-.044-1.374-.085-2.748a6.126,6.126,0,0,0-.057-.748,1.015,1.015,0,0,0-.164-.435.66.66,0,0,0-.357-.232,2.061,2.061,0,0,0-.629-.055q-.039-1.288-.079-2.575L45.86,107a3.857,3.857,0,0,1,1.029.1,1.813,1.813,0,0,1,.8.44,2.263,2.263,0,0,1,.556.935,5.267,5.267,0,0,1,.24,1.549q.064,2.076.13,4.151" transform="translate(-15.196 -40.723)" fill="#fff"/>
    <path id="Trazado_318" data-name="Trazado 318" d="M30.575,180.108v.151c-.009.139-.018.373,4.633,3.342a31.651,31.651,0,0,0,10.831,5.057,16.632,16.632,0,0,0,4,.552,65.821,65.821,0,0,1-8.188-8.005c-.131-.154-.255-.315-.385-.471-3.775-.434-8.083-.807-9.874-.807-.678,0-.821.053-.888.1l-.129.077" transform="translate(-11.637 -68.48)" fill="#a2843e"/>
    <path id="Trazado_319" data-name="Trazado 319" d="M222.009,37.847c-.173,0-.535,0-1.7,2.779-1.161,2.842-1.315,3.692-1.358,7.588-.006,1.09,0,1.916.035,2.588a65.243,65.243,0,0,1,3.751,7.121,2.314,2.314,0,0,0,.72-.627,15.043,15.043,0,0,0,2.525-6.832c-.024-1.912-1.833-8.045-3.66-12.383a.341.341,0,0,0-.316-.234" transform="translate(-83.333 -14.405)" fill="#a2843e"/>
    <path id="Trazado_320" data-name="Trazado 320" d="M176.116,8.406l-.062.059c-.557.438,1.452,6.043,1.867,6.93a7.24,7.24,0,0,0,.614,1.014c.387.216.781.422,1.164.647a65.431,65.431,0,0,1,7.766,5.333,8.214,8.214,0,0,0-.118-4.153c-.7-2.193-4.362-5.964-7.835-8.071a25.4,25.4,0,0,0-3.29-1.763l-.105.006" transform="translate(-66.97 -3.197)" fill="#a2843e"/>
    <path id="Trazado_321" data-name="Trazado 321" d="M105.725,149.794H86.773a29.357,29.357,0,0,1-8.247-1.122,38.44,38.44,0,0,0,24.129,15.317q1.534-7.1,3.07-14.2" transform="translate(-29.887 -56.585)" fill="#a2843e"/>
    <path id="Trazado_322" data-name="Trazado 322" d="M129.442,90.353l13.714-.022a38.3,38.3,0,0,0-1.615-6.117l-17.038.027q-5.056,23.375-10.11,46.749l-6.838-.012q5.052-23.364,10.106-46.727l-6.52.022,1.286-5.947,26.419-.051a38.571,38.571,0,0,0-4.265-6.121l-47.44.068A25.607,25.607,0,0,0,72.863,76.44a38.253,38.253,0,0,0-5.928,18.148c1.4-5.978,7.778-16.247,20.2-16.247l22.894-.074q-.643,2.972-1.287,5.947l-21.607.072c-9.5,0-14.482,9.581-14.482,12.895,0,5.8,4.284,9.266,11.46,9.266l7.764-.119q.871-4.023,1.742-8.045l-14.736.05q.643-2.973,1.287-5.946l21.527-.061q-2.182,10.032-4.362,20.067H82.36c-8.484,0-13.764-3.881-15.266-11.02a38.228,38.228,0,0,0,5.065,15.187,25.5,25.5,0,0,0,10.2,1.952h19.908l6.112-28.11,1.688-.006-9.691,44.8a38.8,38.8,0,0,0,4.925.325,38.339,38.339,0,0,0,15.028-3.049q4.554-21.062,9.11-42.123" transform="translate(-25.475 -27.462)" fill="#fff"/>
    <path id="Trazado_323" data-name="Trazado 323" d="M92.615,61.745l45.47-.063A38.438,38.438,0,0,0,81.333,64.04a27.968,27.968,0,0,1,11.282-2.294" transform="translate(-30.955 -19.145)" fill="#a2843e"/>
    <path id="Trazado_324" data-name="Trazado 324" d="M157.112,143.809a38.441,38.441,0,0,0,20.966-34.242,38.855,38.855,0,0,0-.281-4.583L165.5,105q-4.2,19.4-8.392,38.806" transform="translate(-59.797 -39.957)" fill="#a2843e"/>
    <path id="Trazado_325" data-name="Trazado 325" d="M52.048,19.016q-1.319,1.488-2.639,2.978A36.889,36.889,0,0,0,45.6,27.145a13.068,13.068,0,0,0-.97,8.5,5.3,5.3,0,0,0,.635,1.576c.023-.03.045-.061.068-.09a66.192,66.192,0,0,1,5.724-6.367c.3-.3.624-.574.932-.864a17.613,17.613,0,0,0,.872-8.237q-.143-1.239-.284-2.477c-.039-.339-.307-.424-.533-.168" transform="translate(-16.868 -7.181)" fill="#a2843e"/>
    <path id="Trazado_326" data-name="Trazado 326" d="M75.468,8.206l-.79.4c-.492.249-2,1.144-3.431,2.037-5.363,3.391-8.143,7.686-7.278,11.24a65.618,65.618,0,0,1,8.607-5.7c.282-.156.572-.3.858-.454a20.31,20.31,0,0,0,1.78-4.545q.344-1.316.689-2.631c.086-.33-.131-.5-.434-.351" transform="translate(-24.287 -3.102)" fill="#a2843e"/>
    <path id="Trazado_327" data-name="Trazado 327" d="M15.906,153.663c.823.9,2.187,2.536,3.015,3.43A40.121,40.121,0,0,0,28,164.248a25.022,25.022,0,0,0,4.049,1.246,65.451,65.451,0,0,1-5.773-9.97c-.089-.191-.167-.387-.253-.579a63.567,63.567,0,0,0-7.411-2.584c-.7-.2-1.945-.445-2.668-.556a1.148,1.148,0,0,0-.728.032.355.355,0,0,0-.181.207c-.182.393.037.7.877,1.62" transform="translate(-5.697 -57.764)" fill="#a2843e"/>
    <path id="Trazado_328" data-name="Trazado 328" d="M21.589,65.057c-.292-.487-.844-1.313-1.152-1.79-1.062-1.649-1.329-2.054-1.825-1.97s-.486.641-.492,1.269c-.04.786-.188,3.314-.348,5.62-.521,7.211.86,11.49,4.329,13.465.074.043.136.075.2.112A64.645,64.645,0,0,1,24.6,72.88c.082-.245.179-.483.263-.725a39.413,39.413,0,0,0-3.27-7.1" transform="translate(-6.724 -23.326)" fill="#a2843e"/>
    <path id="Trazado_329" data-name="Trazado 329" d="M12.954,93.217a22.967,22.967,0,0,0-2.158-1.8c-1.332-.995-1.908-.793-1.854.108a36.156,36.156,0,0,0,.726,4.029c1.447,7.089,3.653,11.141,7.573,13.555.2.122.508.3.843.484-.114-1.578-.18-3.169-.18-4.776,0-1.585.06-3.155.171-4.711.018-.251.043-.5.064-.754a42.557,42.557,0,0,0-5.185-6.137" transform="translate(-3.402 -34.543)" fill="#a2843e"/>
    <path id="Trazado_330" data-name="Trazado 330" d="M9.242,125.1c1.381,2.629,3.181,5.663,4,6.849a17.159,17.159,0,0,0,7.522,5.674A64.655,64.655,0,0,1,18,127.055c-.034-.2-.056-.4-.087-.593-.152-.107-.3-.211-.453-.3-.837-.477-2.584-1.557-3.946-2.446-1.454-.912-3.4-2.092-4.461-2.652l-1.969-1.078a.257.257,0,0,0-.357.352L9.242,125.1" transform="translate(-2.547 -45.653)" fill="#a2843e"/>
    <path id="Trazado_331" data-name="Trazado 331" d="M200.623,203.911c-.719.186-1.512.4-3.122.857q-.011-1.319-.022-2.638c1.014.176,1.185.2,1.88.3l3.079.5c.236.038.235.459.027.512l-1.843.472" transform="translate(-75.161 -76.931)" fill="#a2843e"/>
    <path id="Trazado_332" data-name="Trazado 332" d="M54.035,203.911c.719.186,1.511.4,3.121.857q.011-1.319.023-2.638c-1.015.176-1.186.2-1.881.3l-3.079.5c-.235.038-.234.459-.027.512l1.843.472" transform="translate(-19.806 -76.931)" fill="#a2843e"/>
    <path id="Trazado_333" data-name="Trazado 333" d="M79.847,212.6H93.964v3H88.757v9.077h-3.7V215.6H79.847Z" transform="translate(-30.39 -80.916)" fill="#1a1718"/>
    <path id="Trazado_334" data-name="Trazado 334" d="M103.419,212.6h3.621l2.57,8.877h.033l3.071-8.877h3.438l3.069,8.877h.033l2.569-8.877h3.621l-3.92,12.08h-4.255l-2.82-7.976h-.033l-2.82,7.976H107.34Z" transform="translate(-39.361 -80.916)" fill="#1a1718"/>
    <rect id="Rectángulo_102" data-name="Rectángulo 102" width="3.703" height="12.08" transform="translate(87.652 131.685)" fill="#1a1718"/>
    <path id="Trazado_335" data-name="Trazado 335" d="M151.855,212.6H157.6l6.957,8.777h.032V212.6h3.705v12.08h-5.74l-6.958-8.777h-.033v8.777h-3.7Z" transform="translate(-57.796 -80.916)" fill="#1a1718"/>
    <path id="Trazado_336" data-name="Trazado 336" d="M83.28,177.329a5.651,5.651,0,0,1,.9-1.291,2.042,2.042,0,0,1,1.012-.591,2.489,2.489,0,0,1,1.233.068,7.955,7.955,0,0,1,1.576.674l2.323,1.25a6.235,6.235,0,0,1,1.242.837,2.741,2.741,0,0,1,.635.8,1.338,1.338,0,0,1,.143.756,1.984,1.984,0,0,1-.229.713l-.308.574-1.93-1.039a.618.618,0,0,0,.022-.656,2.073,2.073,0,0,0-.771-.6l-1.961-1.055a1.434,1.434,0,0,0-.949-.225.926.926,0,0,0-.608.515l-.466.865a2.034,2.034,0,0,1,.861-.069,3.351,3.351,0,0,1,1.1.407l2.081,1.121a6.025,6.025,0,0,1,1.232.831,1.981,1.981,0,0,1,.561.8,1.457,1.457,0,0,1,.023.836,4.091,4.091,0,0,1-.375.926l-.341.633a3.215,3.215,0,0,1-.743.982,1.483,1.483,0,0,1-.815.344,2.182,2.182,0,0,1-.963-.161,9.916,9.916,0,0,1-1.171-.546l-3.178-1.71a5.028,5.028,0,0,1-1.07-.746,2.169,2.169,0,0,1-.582-.87,2.075,2.075,0,0,1-.063-1.052,4.391,4.391,0,0,1,.486-1.289Zm3.615,5.836a3.442,3.442,0,0,0,.555.247.91.91,0,0,0,.409.045.567.567,0,0,0,.312-.157,1.466,1.466,0,0,0,.259-.359,1.417,1.417,0,0,0,.155-.41.523.523,0,0,0-.051-.339,1,1,0,0,0-.276-.317,3.711,3.711,0,0,0-.536-.341l-1.95-1.049a3.733,3.733,0,0,0-.585-.263.967.967,0,0,0-.417-.056.538.538,0,0,0-.306.147,1.364,1.364,0,0,0-.256.354,1.445,1.445,0,0,0-.159.414.573.573,0,0,0,.04.346.887.887,0,0,0,.265.317,3.253,3.253,0,0,0,.51.328Z" transform="translate(-31.081 -66.757)" fill="#fff"/>
    <path id="Trazado_337" data-name="Trazado 337" d="M120.31,186.547l9.009-.009,0,1.782-6.816.007,0,1.439a1.816,1.816,0,0,1,.251-.211,1.432,1.432,0,0,1,.314-.166,1.831,1.831,0,0,1,.421-.1,4.126,4.126,0,0,1,.589-.035l2.866,0a5.179,5.179,0,0,1,1.176.118,2.227,2.227,0,0,1,.868.393,1.731,1.731,0,0,1,.543.735,3.054,3.054,0,0,1,.19,1.148v.526a3.678,3.678,0,0,1-.243,1.49,1.708,1.708,0,0,1-.736.816,3.145,3.145,0,0,1-1.238.35q-.748.074-1.753.076l-1.986,0c-.626,0-1.171-.022-1.639-.066a3.4,3.4,0,0,1-1.165-.3,1.512,1.512,0,0,1-.692-.661,2.512,2.512,0,0,1-.23-1.166v-.479l2.329,0a1.73,1.73,0,0,0,.046.435.471.471,0,0,0,.2.273.98.98,0,0,0,.416.142,4.987,4.987,0,0,0,.7.039l2.375,0a3.033,3.033,0,0,0,.691-.064.775.775,0,0,0,.388-.2.668.668,0,0,0,.171-.348,2.786,2.786,0,0,0,.04-.509,1.816,1.816,0,0,0-.069-.559.586.586,0,0,0-.235-.314,1.015,1.015,0,0,0-.451-.137c-.191-.017-.43-.027-.719-.028l-2.672,0a.864.864,0,0,0-.491.131.626.626,0,0,0-.251.417l-2.193,0Z" transform="translate(-45.688 -70.996)" fill="#fff"/>
    <path id="Trazado_338" data-name="Trazado 338" d="M157.144,182.719a5.611,5.611,0,0,1-.544-1.477,2.02,2.02,0,0,1,.092-1.168,2.511,2.511,0,0,1,.76-.975,8.029,8.029,0,0,1,1.452-.91l2.648-1.343a7.99,7.99,0,0,1,1.592-.635,2.5,2.5,0,0,1,1.235-.037,2.027,2.027,0,0,1,1,.614,5.715,5.715,0,0,1,.871,1.313l1.044,2.056a4.427,4.427,0,0,1,.455,1.3,2.075,2.075,0,0,1-.088,1.05,2.159,2.159,0,0,1-.6.856,5.026,5.026,0,0,1-1.09.719l-3.828,1.943a5.02,5.02,0,0,1-1.223.453,2.166,2.166,0,0,1-1.047-.019,2.069,2.069,0,0,1-.9-.549,4.43,4.43,0,0,1-.781-1.134Zm3.046.555a2.229,2.229,0,0,0,.31.471.856.856,0,0,0,.379.255.99.99,0,0,0,.506.012,2.722,2.722,0,0,0,.687-.26l2.1-1.065a2.8,2.8,0,0,0,.616-.4.994.994,0,0,0,.289-.415.862.862,0,0,0,.017-.457,2.244,2.244,0,0,0-.2-.528l-.805-1.588a2.192,2.192,0,0,0-.31-.47.851.851,0,0,0-.379-.256,1.01,1.01,0,0,0-.506-.013,2.759,2.759,0,0,0-.688.261l-2.1,1.064a2.748,2.748,0,0,0-.616.4,1,1,0,0,0-.289.416.866.866,0,0,0-.018.457,2.246,2.246,0,0,0,.2.528Z" transform="translate(-59.585 -67.029)" fill="#fff"/>
    <path id="Trazado_339" data-name="Trazado 339" d="M90.1,11.225A63,63,0,0,0,58.105,128.49H67.82a58.675,58.675,0,1,1,44.558,0h9.715A63,63,0,0,0,90.1,11.225" transform="translate(-10.316 -4.272)" fill="#fff"/>
  </g>
</svg>
